<svg width="109" height="154" viewBox="0 0 109 154" fill="none" xmlns="http://www.w3.org/2000/svg">
<path fill-rule="evenodd" clip-rule="evenodd" d="M15.5702 75.2825L28.2271 71.4852L28.1968 65.8923L15.4792 58.5039L15.5702 75.2825Z"  stroke="#A5E5F4" stroke-miterlimit="10" stroke-linecap="round" stroke-linejoin="round"/>
<path fill-rule="evenodd" clip-rule="evenodd" d="M35.7226 10.2939L49.9356 18.42L80.8383 10.0494C87.1688 8.52357 94.2551 8.85802 99.8702 12.9291C99.8702 12.9291 82.2631 -2.26302 66.9981 1.92128L35.7226 10.2939Z"  stroke="#A5E5F4" stroke-miterlimit="10" stroke-linecap="round" stroke-linejoin="round"/>
<path fill-rule="evenodd" clip-rule="evenodd" d="M35.9845 127.001L28.5031 122.567L36.323 120.66L36.3129 118.796C36.2988 116.186 35.9117 113.578 35.5247 110.97C35.5247 110.97 35.5247 110.97 35.5227 110.597C35.5187 109.851 35.1418 109.108 35.1377 108.362C19.5 112.548 17.2669 113.306 1.62908 117.493L28.5577 132.634C34.5456 136.703 35.646 133.341 35.9845 127.001Z"  stroke="#A5E5F4" stroke-miterlimit="10" stroke-linecap="round" stroke-linejoin="round"/>
<path fill-rule="evenodd" clip-rule="evenodd" d="M80.8372 10.0492L49.5616 18.4219L49.6101 27.3705L49.885 78.0791L62.544 74.6546L62.3135 32.1489L80.5573 27.2027C92.4705 23.7823 95.8485 27.8655 95.9091 39.0512L96.1739 87.8956C96.2386 99.827 86.9495 105.843 81.3667 107.738L62.7501 112.686L62.7522 113.059L62.8391 129.092L83.6908 123.759C98.5829 119.576 108.573 105.353 108.498 91.5574C108.389 71.4231 108.28 51.2888 108.171 31.1545C108.465 16.6111 96.4729 5.49003 80.8372 10.0492Z"  stroke="#A5E5F4" stroke-miterlimit="10" stroke-linecap="round" stroke-linejoin="round"/>
<path fill-rule="evenodd" clip-rule="evenodd" d="M96.1723 88.2683L95.9055 39.0511C95.8469 28.2382 92.4709 24.5278 81.6722 27.1965L81.9673 81.6337C81.6531 92.4485 77.5779 97.3179 66.4084 100.361C64.5461 100.744 63.0587 101.498 61.1964 101.881C62.3332 105.231 62.7263 108.957 62.7505 113.432L81.3671 108.483C89.5538 105.456 95.4872 99.458 96.1824 90.1326C96.1763 89.014 96.1743 88.6411 96.1723 88.2683Z"  stroke="#A5E5F4" stroke-miterlimit="10" stroke-linecap="round" stroke-linejoin="round"/>
<path fill-rule="evenodd" clip-rule="evenodd" d="M36.3168 120.287L28.4989 122.567L36.3532 126.999C36.3431 125.134 36.333 123.27 36.3229 121.406L36.3168 120.287Z"  stroke="#A5E5F4" stroke-miterlimit="10" stroke-linecap="round" stroke-linejoin="round"/>
<path fill-rule="evenodd" clip-rule="evenodd" d="M62.8653 133.193C62.8613 132.447 62.8572 131.701 62.8532 130.955L62.8491 130.21L62.7602 113.804C62.2661 91.4346 47.6781 82.9377 47.6781 82.9377L28.2289 71.8571L15.5699 75.2815L35.0192 86.3621C49.6031 94.1133 50.0871 114.618 50.1013 117.228L50.1033 117.601L50.1922 134.007C50.1942 134.38 50.1963 134.753 50.1983 135.126C49.8375 137.365 48.4047 148.186 38.7327 152.34L50.6419 148.174C52.5021 147.418 61.7953 142.147 62.8653 133.193Z"  stroke="#A5E5F4" stroke-miterlimit="10" stroke-linecap="round" stroke-linejoin="round"/>
<path fill-rule="evenodd" clip-rule="evenodd" d="M35.8978 42.3593L13.8305 29.8014L1.17151 33.2258L35.9564 53.1722L35.8978 42.3593Z"  stroke="#A5E5F4" stroke-miterlimit="10" stroke-linecap="round" stroke-linejoin="round"/>
<path fill-rule="evenodd" clip-rule="evenodd" d="M1.63072 117.865L28.5593 133.007C36.4136 137.439 36.0023 130.357 36.3247 121.033L36.3125 118.796C35.9033 112.087 35.8548 103.138 28.7503 99.4478L1.44678 83.9353C1.35582 67.1568 1.26284 50.0053 1.17188 33.2267L35.9568 53.173L35.7243 10.2944L49.9374 18.4205L50.2608 78.0777L15.4779 58.5042L15.5689 75.2828L35.0181 86.3634C47.7337 93.379 50.0456 107.163 50.1083 118.721L50.1891 133.635C50.2376 142.584 41.3699 157.547 29.4021 150.9L1.7237 135.017L1.63881 119.357L1.63072 117.865Z"  stroke="#A5E5F4" stroke-miterlimit="10" stroke-linecap="round" stroke-linejoin="round"/>
</svg>
