<svg class="house" width="352" height="727" viewBox="0 0 352 727" fill="none" xmlns="http://www.w3.org/2000/svg">
<mask id="mask0_1_1175" style="mask-type:alpha" maskUnits="userSpaceOnUse" x="-76" y="-1" width="428" height="728">
<line x1="-75.2789" y1="287.199" x2="351.721" y2="0.278619" stroke="#A5E5F4"/>
<line x1="-75.2789" y1="295.476" x2="351.721" y2="8.55645" stroke="#A5E5F4"/>
<line x1="-75.2789" y1="303.754" x2="351.721" y2="16.8345" stroke="#A5E5F4"/>
<line x1="-75.2789" y1="312.032" x2="351.721" y2="25.1124" stroke="#A5E5F4"/>
<line x1="-75.2789" y1="320.31" x2="351.721" y2="33.3902" stroke="#A5E5F4"/>
<line x1="-75.2789" y1="328.588" x2="351.721" y2="41.6683" stroke="#A5E5F4"/>
<line x1="-75.2789" y1="336.866" x2="351.721" y2="49.9461" stroke="#A5E5F4"/>
<line x1="-75.2789" y1="345.144" x2="351.721" y2="58.2242" stroke="#A5E5F4"/>
<line x1="-75.2789" y1="353.422" x2="351.721" y2="66.502" stroke="#A5E5F4"/>
<line x1="-75.2789" y1="361.7" x2="351.721" y2="74.7798" stroke="#A5E5F4"/>
<line x1="-75.2789" y1="369.978" x2="351.721" y2="83.0579" stroke="#A5E5F4"/>
<line x1="-75.2789" y1="378.256" x2="351.721" y2="91.3357" stroke="#A5E5F4"/>
<line x1="-75.2789" y1="386.534" x2="351.721" y2="99.6138" stroke="#A5E5F4"/>
<line x1="-75.2789" y1="394.812" x2="351.721" y2="107.892" stroke="#A5E5F4"/>
<line x1="-75.2789" y1="403.089" x2="351.721" y2="116.169" stroke="#A5E5F4"/>
<line x1="-75.2789" y1="411.367" x2="351.721" y2="124.448" stroke="#A5E5F4"/>
<line x1="-75.2789" y1="419.645" x2="351.721" y2="132.725" stroke="#A5E5F4"/>
<line x1="-75.2789" y1="427.923" x2="351.721" y2="141.003" stroke="#A5E5F4"/>
<line x1="-75.2789" y1="436.201" x2="351.721" y2="149.281" stroke="#A5E5F4"/>
<line x1="-75.2789" y1="444.479" x2="351.721" y2="157.559" stroke="#A5E5F4"/>
<line x1="-75.2789" y1="452.757" x2="351.721" y2="165.837" stroke="#A5E5F4"/>
<line x1="-75.2789" y1="461.035" x2="351.721" y2="174.115" stroke="#A5E5F4"/>
<line x1="-75.2789" y1="469.313" x2="351.721" y2="182.393" stroke="#A5E5F4"/>
<line x1="-75.2789" y1="477.591" x2="351.721" y2="190.671" stroke="#A5E5F4"/>
<line x1="-75.2789" y1="485.869" x2="351.721" y2="198.949" stroke="#A5E5F4"/>
<line x1="-75.2789" y1="494.147" x2="351.721" y2="207.227" stroke="#A5E5F4"/>
<line x1="-75.2789" y1="502.425" x2="351.721" y2="215.505" stroke="#A5E5F4"/>
<line x1="-75.2789" y1="510.703" x2="351.721" y2="223.783" stroke="#A5E5F4"/>
<line x1="-75.2789" y1="518.98" x2="351.721" y2="232.061" stroke="#A5E5F4"/>
<line x1="-75.2789" y1="527.258" x2="351.721" y2="240.338" stroke="#A5E5F4"/>
<line x1="-75.2789" y1="535.536" x2="351.721" y2="248.617" stroke="#A5E5F4"/>
<line x1="-75.2789" y1="543.814" x2="351.721" y2="256.894" stroke="#A5E5F4"/>
<line x1="-75.2789" y1="552.092" x2="351.721" y2="265.172" stroke="#A5E5F4"/>
<line x1="-75.2789" y1="560.37" x2="351.721" y2="273.45" stroke="#A5E5F4"/>
<line x1="-75.2789" y1="568.648" x2="351.721" y2="281.728" stroke="#A5E5F4"/>
<line x1="-75.2789" y1="576.926" x2="351.721" y2="290.006" stroke="#A5E5F4"/>
<line x1="-75.2789" y1="585.204" x2="351.721" y2="298.284" stroke="#A5E5F4"/>
<line x1="-75.2789" y1="593.482" x2="351.721" y2="306.562" stroke="#A5E5F4"/>
<line x1="-75.2789" y1="601.76" x2="351.721" y2="314.84" stroke="#A5E5F4"/>
<line x1="-75.2789" y1="610.038" x2="351.721" y2="323.118" stroke="#A5E5F4"/>
<line x1="-75.2789" y1="618.316" x2="351.721" y2="331.396" stroke="#A5E5F4"/>
<line x1="-75.2789" y1="626.594" x2="351.721" y2="339.674" stroke="#A5E5F4"/>
<line x1="-75.2789" y1="634.872" x2="351.721" y2="347.952" stroke="#A5E5F4"/>
<line x1="-75.2789" y1="643.149" x2="351.721" y2="356.23" stroke="#A5E5F4"/>
<line x1="-75.2789" y1="651.428" x2="351.721" y2="364.508" stroke="#A5E5F4"/>
<line x1="-75.2789" y1="659.705" x2="351.721" y2="372.785" stroke="#A5E5F4"/>
<line x1="-75.2789" y1="667.983" x2="351.721" y2="381.064" stroke="#A5E5F4"/>
<line x1="-75.2789" y1="676.261" x2="351.721" y2="389.341" stroke="#A5E5F4"/>
<line x1="-75.2789" y1="684.539" x2="351.721" y2="397.619" stroke="#A5E5F4"/>
<line x1="-75.2789" y1="692.817" x2="351.721" y2="405.897" stroke="#A5E5F4"/>
<line x1="-75.2789" y1="701.095" x2="351.721" y2="414.175" stroke="#A5E5F4"/>
<line x1="-75.2789" y1="709.373" x2="351.721" y2="422.453" stroke="#A5E5F4"/>
<line x1="-75.2789" y1="717.651" x2="351.721" y2="430.731" stroke="#A5E5F4"/>
<line x1="-75.2789" y1="725.929" x2="351.721" y2="439.009" stroke="#A5E5F4"/>
</mask>
<g mask="url(#mask0_1_1175)">
<path d="M316.735 459.891H-8.177V241.86L154.122 132.896L316.735 241.86V459.891Z" fill="#A5E5F4"/>
</g>
<path d="M316.735 459.891H-8.177V241.86L154.122 132.896L316.735 241.86V459.891Z" stroke="#A5E5F4" stroke-miterlimit="10"/>
</svg>
